<!DOCTYPE svg PUBLIC "-//W3C//DTD SVG 1.1//EN" "http://www.w3.org/Graphics/SVG/1.1/DTD/svg11.dtd">
<!-- Uploaded to: SVG Repo, www.svgrepo.com, Transformed by: SVG Repo Mixer Tools -->
<svg fill="#1370aa" height="800px" width="800px" version="1.1" id="Layer_1" xmlns="http://www.w3.org/2000/svg" xmlns:xlink="http://www.w3.org/1999/xlink" viewBox="0 0 375 375" xml:space="preserve" style="" stroke="#1370aa">
<g id="SVGRepo_bgCarrier" stroke-width="0"/>
<g id="SVGRepo_tracerCarrier" stroke-linecap="round" stroke-linejoin="round"/>
<g id="SVGRepo_iconCarrier"> <g id="XMLID_863_"> <path id="XMLID_864_" d="M70,165c0,57.897,47.103,105,105,105s105-47.103,105-105S232.897,60,175,60S70,107.103,70,165z M160.432,180h29.137c-1.908,32.549-9.728,52.49-14.568,58.639C170.16,232.49,162.34,212.549,160.432,180z M160.432,150 c1.908-32.549,9.728-52.49,14.568-58.639c4.84,6.149,12.66,26.09,14.568,58.639H160.432z M138.615,99.448 c-4.584,14.754-7.281,32.366-8.228,50.552H101.51C105.939,128.267,119.803,109.932,138.615,99.448z M101.51,180h28.878 c0.946,18.186,3.643,35.798,8.228,50.552C119.803,220.068,105.939,201.733,101.51,180z M211.385,230.552 c4.584-14.754,7.281-32.366,8.228-50.552h28.878C244.062,201.733,230.198,220.068,211.385,230.552z M248.491,150h-28.878 c-0.946-18.186-3.643-35.798-8.228-50.552C230.198,109.932,244.062,128.267,248.491,150z"/> <path id="XMLID_872_" d="M175,300c-74.439,0-135-60.561-135-135s60.56-135,135-135c8.284,0,15-6.716,15-15s-6.716-15-15-15 C84.019,0,10,74.019,10,165s74.019,165,165,165c8.284,0,15-6.716,15-15S183.284,300,175,300z"/> <path id="XMLID_873_" d="M349.999,309.994l-39.716,0.002c-0.004,0-0.008,0-0.013,0L253.493,310l-10.63-17.717 c-4.262-7.104-13.477-9.408-20.58-5.145c-7.104,4.262-9.407,13.476-5.145,20.58l15,25c2.711,4.519,7.594,7.283,12.863,7.283 l32.384-0.002l-8.776,10.242c-5.39,6.291-4.66,15.76,1.631,21.15c2.829,2.424,6.299,3.61,9.753,3.61 c4.228,0,8.431-1.778,11.397-5.241l25.503-29.764l33.108-0.002c8.284,0,14.999-6.717,14.999-15.001 C365,316.709,358.283,309.994,349.999,309.994z"/> </g> </g>
</svg>